<svg xmlns="http://www.w3.org/2000/svg" xmlns:xlink="http://www.w3.org/1999/xlink" width="55" height="47" viewBox="0 0 55 47">
    <defs>
        <path id="prefix__a" d="M0 0.039L54.903 0.039 54.903 46 0 46z"/>
    </defs>
    <g fill="none" fill-rule="evenodd">
        <g transform="translate(0 .5)">
            <mask id="prefix__b" fill="#fff">
                <use xlink:href="#prefix__a"/>
            </mask>
            <path fill="#2F425C" d="M2.652 30.008h29.364c.732 0 1.325.596 1.325 1.331v10.116L51.702 23.02 33.342 4.584V14.7c0 .735-.594 1.331-1.326 1.331H2.652v13.977zM32.015 46c-.17 0-.343-.033-.507-.101-.495-.207-.818-.692-.818-1.23V32.67H1.326C.593 32.67 0 32.074 0 31.34V14.7c0-.735.593-1.331 1.326-1.331H30.69V1.37c0-.538.323-1.024.818-1.23.496-.207 1.066-.092 1.445.288l21.561 21.65c.518.52.518 1.362 0 1.882L32.953 45.61c-.253.255-.593.39-.938.39z" mask="url(#prefix__b)"/>
        </g>
        <path fill="#2F425C" d="M24.003 21.5H6.997C6.447 21.5 6 20.828 6 20c0-.829.446-1.5.997-1.5h17.006c.55 0 .997.671.997 1.5 0 .828-.446 1.5-.997 1.5M31.122 21.5h-3.244c-.485 0-.878-.672-.878-1.5 0-.829.393-1.5.878-1.5h3.244c.485 0 .878.671.878 1.5 0 .828-.393 1.5-.878 1.5"/>
    </g>
</svg>
